<?xml version="1.0" standalone="no"?>
<!DOCTYPE svg PUBLIC "-//W3C//DTD SVG 20010904//EN"
 "http://www.w3.org/TR/2001/REC-SVG-20010904/DTD/svg10.dtd">
<svg version="1.0" xmlns="http://www.w3.org/2000/svg"
 width="256.000000pt" height="256.000000pt" viewBox="0 0 256.000000 256.000000"
 preserveAspectRatio="xMidYMid meet">

<g transform="translate(0.000000,256.000000) scale(0.100000,-0.100000)"
fill="#000000" stroke="none">
<path d="M412 2468 c-8 -8 -12 -67 -12 -200 l0 -188 -148 0 c-102 0 -152 -4
-160 -12 -17 -17 -17 -1559 0 -1576 9 -9 143 -12 540 -12 l528 0 0 -80 0 -80
-128 0 -127 0 -93 -93 c-91 -92 -103 -112 -80 -135 17 -17 1079 -17 1096 0 23
23 11 44 -81 136 l-92 92 -128 0 -127 0 0 80 0 80 528 0 c397 0 531 3 540 12
17 17 17 1559 0 1576 -9 9 -94 12 -320 12 l-308 0 0 28 c0 22 -32 60 -173 200
l-172 172 -536 0 c-403 0 -538 -3 -547 -12z m1028 -216 c0 -102 4 -152 12
-160 8 -8 58 -12 160 -12 l148 0 0 -240 0 -240 -28 0 c-15 0 -33 -5 -40 -12
-9 -9 -12 -120 -12 -440 l0 -428 -600 0 -600 0 0 840 0 840 480 0 480 0 0
-148z m175 -2 l90 -90 -93 0 -92 0 0 90 c0 50 1 90 3 90 1 0 43 -40 92 -90z
m-1215 -290 l0 -40 -68 0 c-40 0 -73 -5 -80 -12 -17 -17 -17 -1239 0 -1256 9
-9 183 -12 720 -12 l708 0 0 -40 0 -40 -760 0 -760 0 0 720 0 720 120 0 120 0
0 -40z m2000 -160 l0 -200 -40 0 -40 0 0 148 c0 102 -4 152 -12 160 -9 9 -76
12 -240 12 l-228 0 0 40 0 40 280 0 280 0 0 -200z m-2000 -520 l0 -560 -40 0
-40 0 0 560 0 560 40 0 40 0 0 -560z m1840 440 l0 -120 -200 0 -200 0 0 120 0
120 200 0 200 0 0 -120z m160 -680 l0 -480 -320 0 -320 0 0 480 0 480 320 0
320 0 0 -480z m-1080 -640 l0 -80 -40 0 -40 0 0 80 0 80 40 0 40 0 0 -80z
m345 -200 l39 -40 -424 0 -424 0 39 40 39 40 346 0 346 0 39 -40z"/>
<path d="M1019 2224 c-74 -26 -138 -81 -178 -154 -33 -60 -36 -71 -36 -150 0
-77 3 -91 34 -148 38 -70 70 -100 145 -140 43 -22 64 -26 136 -26 73 0 92 4
137 27 116 60 178 160 178 287 -1 175 -124 306 -298 316 -50 3 -86 -1 -118
-12z m73 -331 c8 -9 45 -13 138 -13 l128 0 -11 -37 c-16 -52 -101 -135 -153
-151 -90 -26 -174 -6 -241 60 -66 65 -88 151 -61 242 15 52 100 138 148 152
l35 10 3 -125 c1 -71 7 -130 14 -138z m193 192 c29 -29 55 -66 62 -87 l11 -38
-99 0 -99 0 0 99 0 99 38 -11 c21 -7 58 -33 87 -62z"/>
<path d="M560 1480 l0 -40 40 0 40 0 0 40 0 40 -40 0 -40 0 0 -40z"/>
<path d="M720 1480 l0 -40 440 0 440 0 0 40 0 40 -440 0 -440 0 0 -40z"/>
<path d="M560 1320 l0 -40 40 0 40 0 0 40 0 40 -40 0 -40 0 0 -40z"/>
<path d="M720 1320 l0 -40 440 0 440 0 0 40 0 40 -440 0 -440 0 0 -40z"/>
<path d="M560 1160 l0 -40 40 0 40 0 0 40 0 40 -40 0 -40 0 0 -40z"/>
<path d="M720 1160 l0 -40 440 0 440 0 0 40 0 40 -440 0 -440 0 0 -40z"/>
<path d="M560 1000 l0 -40 40 0 40 0 0 40 0 40 -40 0 -40 0 0 -40z"/>
<path d="M720 1000 l0 -40 440 0 440 0 0 40 0 40 -440 0 -440 0 0 -40z"/>
<path d="M560 840 l0 -40 40 0 40 0 0 40 0 40 -40 0 -40 0 0 -40z"/>
<path d="M720 840 l0 -40 440 0 440 0 0 40 0 40 -440 0 -440 0 0 -40z"/>
<path d="M1812 1468 c-8 -8 -12 -56 -12 -148 0 -92 4 -140 12 -148 17 -17 519
-17 536 0 17 17 17 279 0 296 -17 17 -519 17 -536 0z m468 -148 l0 -80 -200 0
-200 0 0 80 0 80 200 0 200 0 0 -80z"/>
<path d="M1812 1108 c-8 -8 -12 -47 -12 -108 0 -61 4 -100 12 -108 16 -16 200
-16 216 0 16 16 16 200 0 216 -16 16 -200 16 -216 0z m148 -108 l0 -40 -40 0
-40 0 0 40 0 40 40 0 40 0 0 -40z"/>
<path d="M2132 1108 c-8 -8 -12 -47 -12 -108 0 -61 4 -100 12 -108 16 -16 200
-16 216 0 16 16 16 200 0 216 -16 16 -200 16 -216 0z m148 -108 l0 -40 -40 0
-40 0 0 40 0 40 40 0 40 0 0 -40z"/>
<path d="M1812 828 c-8 -8 -12 -47 -12 -108 0 -61 4 -100 12 -108 16 -16 200
-16 216 0 16 16 16 200 0 216 -16 16 -200 16 -216 0z m148 -108 l0 -40 -40 0
-40 0 0 40 0 40 40 0 40 0 0 -40z"/>
<path d="M2132 828 c-8 -8 -12 -47 -12 -108 0 -61 4 -100 12 -108 16 -16 200
-16 216 0 16 16 16 200 0 216 -16 16 -200 16 -216 0z m148 -108 l0 -40 -40 0
-40 0 0 40 0 40 40 0 40 0 0 -40z"/>
</g>
</svg>
