<?xml version="1.0" standalone="no"?>
<!DOCTYPE svg PUBLIC "-//W3C//DTD SVG 20010904//EN"
 "http://www.w3.org/TR/2001/REC-SVG-20010904/DTD/svg10.dtd">
<svg version="1.0" xmlns="http://www.w3.org/2000/svg"
 width="256.000000pt" height="256.000000pt" viewBox="0 0 256.000000 256.000000"
 preserveAspectRatio="xMidYMid meet">

<g transform="translate(0.000000,256.000000) scale(0.100000,-0.100000)"
fill="#000000" stroke="none">
<path d="M395 2470 c-11 -4 -31 -20 -45 -35 l-25 -27 0 -1129 0 -1129 33 -32
32 -33 165 -3 165 -3 0 40 0 41 -148 0 c-102 0 -152 4 -160 12 -17 17 -17
2199 0 2216 9 9 178 12 699 12 l688 0 3 -145 3 -145 33 -32 32 -33 145 -3 145
-3 0 -549 0 -549 -32 10 c-53 15 -286 11 -351 -6 -68 -18 -128 -47 -180 -87
l-37 -30 -48 35 c-108 79 -175 97 -355 97 -189 0 -291 -35 -388 -132 -95 -95
-144 -244 -122 -373 32 -187 167 -327 352 -366 33 -7 111 -9 195 -7 161 5 214
20 310 89 l56 40 56 -40 c96 -69 149 -84 310 -89 159 -5 221 5 310 47 178 84
281 306 230 497 -28 105 -118 229 -196 269 l-30 16 0 580 c0 404 -3 587 -11
602 -16 31 -339 356 -371 373 -23 12 -139 14 -735 13 -389 0 -717 -4 -728 -9z
m1609 -348 c-62 -2 -101 1 -110 9 -10 8 -14 38 -14 113 l0 101 110 -110 110
-110 -96 -3z m-778 -1276 c77 -35 145 -103 181 -180 24 -52 28 -74 28 -146 0
-72 -4 -94 -28 -146 -36 -77 -104 -145 -182 -181 -51 -24 -73 -28 -145 -28
-72 0 -94 4 -145 28 -78 36 -146 104 -182 181 -24 52 -28 74 -28 146 0 72 4
94 28 145 86 183 293 263 473 181z m800 0 c77 -35 145 -103 181 -180 24 -52
28 -74 28 -146 0 -72 -4 -94 -28 -146 -36 -77 -104 -145 -182 -181 -51 -24
-73 -28 -145 -28 -72 0 -94 4 -145 28 -33 15 -74 42 -92 59 l-32 31 21 41 c63
123 63 269 0 392 l-21 41 32 30 c98 93 255 117 383 59z m-538 -70 c24 -22 50
-53 58 -68 l15 -28 -35 0 c-30 0 -38 5 -52 33 -9 17 -34 56 -56 85 l-40 53 34
-16 c18 -10 52 -36 76 -59z m800 0 c24 -22 50 -53 58 -68 l15 -28 -35 0 c-30
0 -38 5 -52 33 -9 17 -34 56 -56 85 l-40 53 34 -16 c18 -10 52 -36 76 -59z
m-694 -192 c3 -9 6 -37 6 -64 0 -70 -6 -80 -49 -80 l-36 0 0 80 0 80 36 0 c24
0 39 -5 43 -16z m800 0 c3 -9 6 -37 6 -64 0 -70 -6 -80 -49 -80 l-36 0 0 80 0
80 36 0 c24 0 39 -5 43 -16z m-848 -251 c-19 -37 -93 -107 -134 -128 l-34 -16
40 53 c22 29 47 68 56 86 14 27 22 32 52 32 l35 0 -15 -27z m800 0 c-19 -37
-93 -107 -134 -128 l-34 -16 40 53 c22 29 47 68 56 86 14 27 22 32 52 32 l35
0 -15 -27z"/>
<path d="M917 717 l-29 -22 52 -65 c40 -49 48 -66 36 -68 -11 -3 -16 -15 -16
-43 0 -39 0 -39 40 -39 l40 0 0 -40 0 -40 -40 0 -40 0 0 -40 0 -40 40 0 40 0
0 -40 0 -40 40 0 40 0 0 40 0 40 40 0 40 0 0 40 0 40 -40 0 -40 0 0 40 0 40
40 0 c40 0 40 0 40 39 0 28 -5 40 -16 43 -12 2 -4 19 36 68 l52 65 -29 22
c-15 13 -31 23 -34 23 -3 0 -33 -34 -65 -75 -32 -41 -61 -75 -64 -75 -3 0 -32
34 -64 75 -32 41 -62 75 -65 75 -3 0 -19 -10 -34 -23z"/>
<path d="M1840 760 c0 -33 -6 -45 -37 -74 -34 -31 -38 -39 -38 -85 0 -41 5
-55 29 -80 18 -18 45 -34 69 -38 47 -10 68 -34 51 -60 -9 -14 -28 -19 -83 -21
l-71 -3 0 -39 c0 -40 0 -40 40 -40 l40 0 0 -40 0 -40 40 0 c40 0 40 0 40 40 0
33 6 45 38 74 33 31 37 39 37 85 0 41 -5 55 -29 80 -18 18 -45 34 -69 38 -47
10 -68 34 -51 61 9 13 28 18 83 20 l71 3 0 39 c0 40 0 40 -40 40 l-40 0 0 40
0 40 -40 0 c-40 0 -40 0 -40 -40z"/>
<path d="M1400 2240 l0 -40 52 0 53 0 -112 -112 -113 -113 -60 60 -60 60 -153
-153 -152 -152 28 -27 27 -28 125 125 125 125 60 -60 60 -60 140 140 140 140
0 -53 0 -52 40 0 40 0 0 120 0 120 -120 0 -120 0 0 -40z"/>
<path d="M520 1600 l0 -40 500 0 500 0 0 40 0 40 -500 0 -500 0 0 -40z"/>
<path d="M1600 1600 l0 -40 220 0 220 0 0 40 0 40 -220 0 -220 0 0 -40z"/>
<path d="M520 1440 l0 -40 360 0 360 0 0 40 0 40 -360 0 -360 0 0 -40z"/>
<path d="M1320 1440 l0 -40 360 0 360 0 0 40 0 40 -360 0 -360 0 0 -40z"/>
<path d="M520 1280 l0 -40 200 0 200 0 0 40 0 40 -200 0 -200 0 0 -40z"/>
<path d="M1000 1280 l0 -40 520 0 520 0 0 40 0 40 -520 0 -520 0 0 -40z"/>
<path d="M520 1120 l0 -40 320 0 320 0 0 40 0 40 -320 0 -320 0 0 -40z"/>
<path d="M1240 1120 l0 -40 400 0 400 0 0 40 0 40 -400 0 -400 0 0 -40z"/>
<path d="M520 960 l0 -40 120 0 120 0 0 40 0 40 -120 0 -120 0 0 -40z"/>
</g>
</svg>
